<?xml version="1.0" standalone="no"?>
<!DOCTYPE svg PUBLIC "-//W3C//DTD SVG 20010904//EN"
 "http://www.w3.org/TR/2001/REC-SVG-20010904/DTD/svg10.dtd">
<svg version="1.0" xmlns="http://www.w3.org/2000/svg"
 width="1280.000000pt" height="1280.000000pt" viewBox="0 0 1280.000000 1280.000000"
 preserveAspectRatio="xMidYMid meet">
<metadata>
Created by potrace 1.14, written by Peter Selinger 2001-2017
</metadata>
<g transform="translate(0.000000,1280.000000) scale(0.100000,-0.100000)"
fill="#000000" stroke="none">
<path d="M4823 10855 c-40 -14 -93 -37 -118 -53 -26 -16 -134 -114 -241 -218
-108 -104 -203 -193 -212 -199 -11 -6 -680 -10 -1817 -11 -990 0 -1816 -4
-1835 -8 -150 -30 -296 -107 -390 -206 -64 -66 -90 -99 -90 -110 0 -6 -3 -10
-8 -10 -6 0 -63 -111 -68 -130 0 -3 -4 -12 -7 -20 -36 -78 -35 -56 -36 -3362
-1 -2353 2 -3231 10 -3270 17 -81 47 -136 108 -198 55 -56 134 -105 185 -114
14 -2 31 -8 37 -12 6 -3 394 -6 863 -6 468 0 858 -2 867 -4 10 -3 19 -20 23
-47 28 -179 175 -450 320 -590 119 -114 330 -257 380 -257 9 0 16 -5 16 -10 0
-6 3 -9 8 -8 4 1 33 -8 65 -20 33 -12 69 -24 80 -26 12 -3 22 -5 22 -6 0 -3
31 -9 130 -24 120 -19 333 -15 430 7 17 4 39 9 51 11 87 17 316 112 336 141 4
5 8 7 8 2 0 -7 80 48 154 105 78 61 197 196 260 295 41 66 86 153 80 153 -4 0
0 10 8 23 14 20 58 151 64 187 2 8 5 24 8 35 2 11 5 23 5 26 2 11 4531 7 4538
-4 3 -5 7 -21 9 -36 4 -37 9 -54 16 -66 3 -5 9 -26 13 -45 12 -57 112 -270
127 -270 5 0 8 -6 8 -14 0 -8 6 -21 13 -28 7 -7 26 -31 42 -53 31 -42 189
-203 216 -220 9 -5 54 -36 101 -67 47 -32 88 -58 91 -58 3 0 34 -13 69 -29 59
-28 139 -58 177 -66 132 -32 174 -37 296 -40 77 -2 165 1 196 6 31 5 72 11 90
13 19 3 34 5 34 6 0 1 10 3 22 6 43 8 176 57 244 90 38 19 74 34 78 34 5 0 11
4 13 8 2 5 35 29 73 54 68 44 199 165 259 238 108 133 201 326 237 491 l12 57
426 -1 c234 0 448 3 474 7 188 26 347 169 396 356 8 33 8 1934 0 1980 -28 149
-65 245 -146 372 -48 75 -173 207 -249 261 -47 33 -194 116 -211 118 -10 2
-32 10 -143 54 -139 54 -364 141 -380 147 -131 46 -196 77 -207 99 -15 29 -52
112 -170 384 -36 83 -78 178 -94 213 -16 35 -29 69 -29 76 0 6 -4 16 -9 22 -5
5 -23 43 -41 84 -36 84 -61 139 -96 218 -13 29 -24 55 -24 57 0 3 -13 32 -29
65 -16 33 -27 60 -25 60 2 0 -5 17 -16 38 -22 43 -42 91 -46 112 -2 8 -8 16
-13 18 -6 2 -11 9 -11 16 0 7 -14 44 -31 82 -46 105 -54 123 -89 204 -130 301
-162 354 -275 466 -126 125 -249 195 -420 239 -5 1 -12 3 -15 5 -43 18 -187
23 -845 25 -412 2 -754 4 -758 4 -4 1 -6 61 -5 133 l3 133 1390 1 c1488 1
1425 -2 1529 51 54 28 166 134 166 158 0 8 4 15 8 15 15 0 52 126 56 194 5 72
-40 199 -102 286 -15 21 -33 46 -40 56 -7 11 -46 68 -87 127 -41 60 -75 113
-75 118 0 5 -4 9 -8 9 -5 0 -18 17 -29 38 -12 20 -33 51 -47 67 -14 17 -26 36
-26 43 0 6 -4 12 -10 12 -5 0 -10 6 -10 14 0 8 -4 16 -8 18 -4 2 -41 53 -81
113 -41 61 -87 126 -103 146 -15 20 -28 40 -28 43 0 6 -65 97 -99 139 -28 34
-95 95 -132 120 -50 34 -148 87 -168 91 -9 2 -23 6 -31 9 -8 3 -28 9 -45 13
-16 4 -37 10 -45 13 -8 3 -1248 6 -2755 8 l-2740 2 -72 -24z m5524 -383 c91
-30 139 -74 235 -217 41 -60 95 -139 119 -175 25 -36 70 -101 100 -145 30 -44
59 -83 64 -87 7 -5 7 -8 0 -8 -6 0 -6 -3 1 -8 6 -4 55 -72 109 -152 54 -80
117 -172 140 -205 37 -53 47 -86 32 -102 -3 -2 -674 -5 -1492 -5 -1616 0
-1520 4 -1585 -54 -16 -15 -37 -43 -46 -63 -17 -34 -18 -200 -18 -2981 l-1
-2945 -1725 -2 c-949 -1 -1735 0 -1747 3 -13 2 -22 8 -21 12 6 22 -49 209 -75
257 -6 11 -12 25 -13 30 -1 6 -11 26 -23 45 -11 19 -24 42 -28 50 -7 17 -64
102 -72 110 -4 3 -18 21 -33 41 -30 41 -82 94 -150 154 -79 70 -98 85 -98 77
0 -4 -6 0 -13 8 -25 31 -253 144 -312 156 -5 1 -44 11 -85 22 -109 30 -160 36
-305 35 -155 -1 -213 -6 -291 -28 -33 -9 -68 -18 -79 -21 -33 -8 -39 -10 -70
-23 -256 -99 -433 -238 -598 -467 -20 -28 -34 -54 -30 -58 3 -3 2 -6 -4 -6 -6
0 -16 -15 -24 -32 -7 -18 -16 -35 -20 -38 -11 -9 -76 -192 -90 -255 -7 -33
-17 -63 -22 -66 -5 -4 -380 -7 -833 -7 -612 0 -826 3 -831 11 -5 7 -8 209 -9
449 l0 437 147 -1 c81 0 152 3 157 6 7 4 10 77 9 198 l-2 192 -155 0 -155 1
-1 2535 c-1 2647 -2 2585 40 2665 37 71 133 142 216 160 19 4 842 8 1830 7
1184 0 1799 4 1808 10 6 6 12 8 12 5 0 -3 15 -1 33 4 17 6 41 12 51 14 11 3
23 10 26 16 4 6 10 9 12 7 3 -1 28 12 56 30 48 31 82 63 324 298 58 57 116
108 128 112 35 13 5368 7 5407 -6z m-433 -2171 c26 -6 61 -18 77 -27 16 -8 29
-12 29 -9 0 2 23 -9 52 -27 80 -50 151 -130 197 -223 23 -46 41 -86 41 -89 0
-3 14 -36 31 -73 17 -37 35 -77 39 -88 5 -11 18 -41 29 -66 12 -25 21 -51 21
-57 0 -7 4 -12 9 -12 5 0 11 -10 14 -22 4 -20 23 -63 102 -243 10 -22 19 -42
19 -45 2 -5 12 -29 67 -148 16 -35 29 -66 29 -69 0 -3 12 -31 26 -62 14 -31
32 -71 40 -88 8 -18 22 -50 31 -70 10 -21 18 -40 18 -43 3 -9 25 -61 49 -113
25 -54 166 -377 166 -380 0 -1 -583 -2 -1295 -2 l-1295 0 0 981 c0 539 2 983
4 985 2 2 330 3 728 3 499 -1 738 -5 772 -13z m1424 -2376 c37 -15 78 -32 92
-38 14 -5 31 -11 38 -13 7 -1 33 -12 58 -23 24 -12 48 -21 54 -21 6 0 18 -4
28 -10 9 -5 70 -30 135 -55 235 -91 352 -138 357 -144 3 -3 16 -12 30 -19 65
-33 173 -155 209 -236 51 -111 55 -144 55 -456 l1 -295 -150 -2 c-82 -1 -153
-2 -156 -2 -4 -1 -6 -89 -5 -197 l1 -196 155 -1 155 -2 1 -415 c0 -244 -3
-424 -9 -437 -5 -12 -21 -26 -36 -32 -16 -6 -182 -10 -443 -9 l-418 0 0 25 c0
13 -4 21 -10 18 -6 -3 -7 1 -4 9 3 9 1 30 -6 48 -6 18 -13 43 -16 55 -2 12 -9
35 -15 50 -6 16 -10 29 -10 30 2 10 -103 203 -110 203 -5 0 -9 6 -9 13 0 26
-223 277 -246 277 -3 0 -12 7 -21 15 -18 19 -149 105 -158 105 -4 0 -21 10
-38 22 -18 13 -33 22 -35 20 -1 -1 -22 6 -47 17 -50 22 -194 68 -240 76 -88
16 -143 20 -270 19 -127 -1 -167 -6 -315 -39 -40 -9 -151 -51 -205 -78 -61
-30 -176 -96 -185 -106 -3 -4 -30 -25 -60 -48 -61 -46 -147 -133 -200 -203
-19 -25 -38 -46 -42 -48 -5 -2 -8 -10 -8 -17 0 -8 -6 -20 -14 -27 -15 -16 -67
-114 -65 -124 0 -4 -4 -10 -9 -13 -17 -11 -101 -269 -94 -292 1 -4 -145 -7
-323 -7 l-325 0 0 1314 0 1313 23 3 c12 2 656 2 1430 1 l1409 -2 66 -26z
m-7898 -2001 c14 -3 30 -6 35 -8 6 -1 26 -6 45 -10 49 -11 138 -46 182 -73 21
-13 42 -23 48 -23 5 0 10 -4 10 -8 0 -5 11 -14 23 -19 39 -18 145 -122 192
-188 40 -55 104 -172 110 -199 1 -6 5 -18 8 -26 26 -67 35 -145 33 -265 -3
-109 -8 -144 -31 -214 -26 -82 -73 -180 -101 -212 -8 -8 -14 -18 -14 -22 0 -3
-30 -38 -67 -77 -68 -72 -216 -180 -247 -180 -9 0 -16 -4 -16 -8 0 -13 -176
-65 -231 -67 -26 -2 -51 -5 -56 -7 -8 -5 -148 -3 -148 1 0 1 -20 4 -44 6 -56
5 -142 30 -209 61 -29 13 -57 24 -62 24 -6 0 -10 5 -10 10 0 6 -5 10 -11 10
-18 0 -140 94 -185 142 -22 24 -57 66 -77 94 -37 51 -103 185 -110 221 -2 10
-7 25 -10 33 -23 58 -31 271 -12 356 24 112 88 257 141 324 151 188 354 304
569 327 28 3 51 6 53 8 5 4 163 -5 192 -11z m6965 0 c22 -3 48 -7 58 -7 9 -1
17 -5 17 -10 0 -4 4 -6 9 -2 9 5 20 2 99 -31 122 -51 185 -92 270 -174 219
-210 298 -518 209 -816 -18 -62 -80 -186 -101 -203 -9 -8 -16 -17 -16 -22 0
-31 -204 -219 -238 -219 -5 0 -12 -4 -14 -8 -1 -5 -32 -22 -68 -39 -56 -26
-77 -34 -135 -49 -110 -28 -256 -37 -345 -20 -144 27 -237 63 -339 130 -230
153 -361 389 -364 655 -1 112 4 152 29 239 17 60 64 165 76 170 4 2 8 9 8 17
0 25 123 165 203 230 12 10 93 60 135 83 30 17 149 59 187 67 17 3 55 9 85 12
30 3 56 6 58 8 5 4 132 -4 177 -11z"/>
<path d="M1471 8858 c-65 -10 -174 -52 -221 -87 -47 -34 -128 -120 -136 -143
-3 -10 -10 -18 -15 -18 -5 0 -9 -4 -9 -9 0 -5 -8 -26 -17 -47 -21 -50 -21 -50
-32 -109 -9 -54 -8 -1307 1 -1340 17 -56 51 -137 64 -149 8 -8 14 -18 14 -23
1 -16 86 -101 138 -136 47 -32 151 -79 170 -76 4 1 9 0 12 -1 3 -1 14 -4 25
-6 30 -7 2605 -7 2638 0 15 3 38 8 51 11 124 26 263 140 329 270 28 55 32 68
46 155 4 25 6 326 5 670 -1 546 -3 630 -17 668 -9 23 -15 43 -14 45 1 1 -11
28 -27 59 -35 70 -129 167 -193 199 -26 13 -50 27 -53 30 -3 4 -36 14 -75 24
-66 17 -148 19 -1351 19 -704 1 -1304 -2 -1333 -6z m401 -392 c15 10 108 10
108 1 0 -5 4 -5 10 -2 15 9 350 11 350 2 0 -5 5 -5 11 -1 16 9 109 11 109 1 0
-5 5 -5 10 -2 16 10 190 11 190 2 0 -5 5 -5 11 -1 16 9 109 11 109 1 0 -5 4
-5 10 -2 15 9 350 11 350 2 0 -5 5 -5 11 -1 16 9 109 11 109 1 0 -5 4 -5 10
-2 15 9 350 11 350 2 0 -5 5 -5 11 -1 16 9 109 11 109 1 0 -5 5 -5 10 -2 16
10 190 11 190 2 0 -5 6 -5 12 -1 12 8 56 7 89 -1 42 -10 57 -19 73 -49 16 -31
18 -78 18 -627 -1 -390 -4 -603 -11 -621 -6 -16 -25 -37 -42 -47 -30 -19 -69
-19 -1289 -19 -1157 0 -1261 1 -1291 16 -64 32 -63 17 -64 662 -1 322 3 597 7
611 5 15 20 37 34 50 24 23 33 24 202 29 97 3 179 2 180 -3 2 -4 8 -4 14 -1z"/>
</g>
</svg>
